<svg width="24" height="24" viewBox="0 0 24 24" fill="none" xmlns="http://www.w3.org/2000/svg">
<path fill-rule="evenodd" clip-rule="evenodd" d="M16.4975 5.02996C16.4973 5.07806 16.4959 5.12589 16.4934 5.17342C17.662 5.5834 18.5 6.69636 18.5 8.00503V9.005H19.5V13.005H18.5V16.005C18.5 17.313 17.663 18.4255 16.4953 18.836C16.4984 18.8919 16.5 18.9483 16.5 19.005C16.5 20.6619 15.1569 22.005 13.5 22.005H9.5C7.84315 22.005 6.5 20.6619 6.5 19.005C6.5 18.9483 6.50158 18.8919 6.50468 18.836C5.33705 18.4255 4.5 17.313 4.5 16.005V8.00503C4.5 6.69774 5.33618 5.58575 6.50286 5.17473C6.49907 5.1104 6.4973 5.04553 6.49763 4.98019C6.50587 3.32335 7.85569 1.98691 9.51252 1.99516L13.5125 2.01506C15.1693 2.02331 16.5058 3.37313 16.4975 5.02996ZM8.49764 5.00503H14.4975C14.4922 4.45962 14.0498 4.01776 13.5025 4.01504L9.50257 3.99513C8.95029 3.99238 8.50035 4.43786 8.4976 4.99014L8.49764 5.00503ZM15.7049 7.02604L11.4846 7.00503H7.5C6.94772 7.00503 6.5 7.45275 6.5 8.00503V16.005C6.5 16.5569 6.94696 17.0043 7.4986 17.005H15.5014C16.053 17.0043 16.5 16.5569 16.5 16.005V8.00503C16.5 7.52297 16.1589 7.12057 15.7049 7.02604ZM8.5 19.005C8.5 19.5573 8.94772 20.005 9.5 20.005H13.5C14.0523 20.005 14.5 19.5573 14.5 19.005H8.5Z" fill="currentColor"/>
</svg>
