<svg width="24" height="24" viewBox="0 0 24 24" fill="none" xmlns="http://www.w3.org/2000/svg">
<path fill-rule="evenodd" clip-rule="evenodd" d="M10.9995 6.85013C9.83381 6.43856 8.99856 5.32707 8.99856 4.02051C8.99856 2.36365 10.3417 1.02051 11.9986 1.02051C13.6554 1.02051 14.9986 2.36365 14.9986 4.02051C14.9986 5.32638 14.1642 6.43737 12.9995 6.84947L13.0126 19.1379L14.8249 17.3154L16.243 18.7256L12.0123 22.9802L7.75781 18.7495L9.16806 17.3313L11.0126 19.1655L10.9995 6.85013ZM11.9986 5.02051C11.4463 5.02051 10.9986 4.57279 10.9986 4.02051C10.9986 3.46822 11.4463 3.02051 11.9986 3.02051C12.5508 3.02051 12.9986 3.46822 12.9986 4.02051C12.9986 4.57279 12.5508 5.02051 11.9986 5.02051Z" fill="currentColor"/>
</svg>
