<svg width="24" height="24" viewBox="0 0 24 24" fill="none" xmlns="http://www.w3.org/2000/svg">
<path fill-rule="evenodd" clip-rule="evenodd" d="M7.75781 5.231L12.0324 1.02051L16.2428 5.29514L14.818 6.69863L13.0144 4.86757L12.943 17.1558C14.1057 17.5734 14.9348 18.6883 14.9286 19.9942C14.9207 21.651 13.5712 22.9878 11.9144 22.9799C10.2576 22.972 8.9208 21.6225 8.92866 19.9657C8.93486 18.6591 9.77538 17.5516 10.943 17.1456L11.0146 4.83038L9.16131 6.65585L7.75781 5.231ZM11.9334 18.9799C11.3811 18.9773 10.9313 19.4229 10.9286 19.9752C10.926 20.5275 11.3716 20.9773 11.9239 20.9799C12.4762 20.9825 12.926 20.537 12.9286 19.9847C12.9312 19.4324 12.4857 18.9826 11.9334 18.9799Z" fill="currentColor"/>
</svg>
