<svg width="24" height="24" viewBox="0 0 24 24" fill="none" xmlns="http://www.w3.org/2000/svg">
<path fill-rule="evenodd" clip-rule="evenodd" d="M5.27031 7.75781L1.02051 11.9933L5.25607 16.2431L6.67267 14.8313L4.85831 13.0108L17.1467 13.0529C17.5535 14.2194 18.6608 15.0588 19.9666 15.0647C21.6235 15.0721 22.9726 13.735 22.9801 12.0782C22.9875 10.4213 21.6504 9.07216 19.9936 9.06472C18.687 9.05885 17.5718 9.8891 17.155 11.0529L4.83964 11.0107L6.68213 9.17441L5.27031 7.75781ZM18.9801 12.0602C18.9826 11.5079 19.4323 11.0622 19.9846 11.0647C20.5369 11.0672 20.9826 11.5169 20.9801 12.0692C20.9776 12.6215 20.5279 13.0672 19.9756 13.0647C19.4233 13.0622 18.9776 12.6125 18.9801 12.0602Z" fill="currentColor"/>
</svg>
