<svg width="24" height="24" viewBox="0 0 24 24" fill="none" xmlns="http://www.w3.org/2000/svg">
<path fill-rule="evenodd" clip-rule="evenodd" d="M18.7304 7.75781L22.9801 11.9933L18.7446 16.2431L17.328 14.8312L19.1423 13.0108L6.85394 13.0529C6.44708 14.2194 5.33984 15.0588 4.03398 15.0647C2.37714 15.0721 1.02798 13.735 1.02054 12.0782C1.0131 10.4213 2.3502 9.07216 4.00704 9.06472C5.31358 9.05885 6.42881 9.8891 6.84561 11.0529L19.161 11.0107L17.3185 9.17441L18.7304 7.75781ZM5.0205 12.0602C5.01802 11.5079 4.5683 11.0622 4.01602 11.0647C3.46374 11.0672 3.01804 11.5169 3.02052 12.0692C3.023 12.6215 3.47272 13.0672 4.025 13.0647C4.57728 13.0622 5.02298 12.6125 5.0205 12.0602Z" fill="black"/>
</svg>
