<svg width="24" height="24" viewBox="0 0 24 24" fill="none" xmlns="http://www.w3.org/2000/svg">
<path d="M12.984 4.99219C12.984 4.4399 13.4318 3.99219 13.984 3.99219C14.3414 3.99219 14.655 4.17967 14.8319 4.46165L17.5195 7.14927C17.91 7.5398 17.91 8.17296 17.5195 8.56349C17.129 8.95401 16.4958 8.95401 16.1053 8.56349L14.984 7.44226V14.9922C14.984 15.5445 14.5363 15.9922 13.984 15.9922C13.4318 15.9922 12.984 15.5445 12.984 14.9922V5.04164C12.9839 5.03252 12.9839 5.02339 12.984 5.01427V4.99219Z" fill="black"/>
<path d="M11.0158 19.0071C11.0158 19.5594 10.5681 20.0071 10.0158 20.0071C9.65844 20.0071 9.34484 19.8196 9.16801 19.5376L6.48039 16.85C6.08987 16.4595 6.08987 15.8263 6.48039 15.4358C6.87092 15.0453 7.50408 15.0453 7.89461 15.4358L9.01583 16.557V9.00708C9.01583 8.45479 9.46355 8.00708 10.0158 8.00708C10.5681 8.00708 11.0158 8.4548 11.0158 9.00708V18.9576C11.016 18.9668 11.016 18.9759 11.0158 18.985V19.0071Z" fill="black"/>
</svg>
