<svg width="24" height="24" viewBox="0 0 24 24" fill="none" xmlns="http://www.w3.org/2000/svg">
<path d="M20 5H17.0502C16.9099 5 16.7761 4.94104 16.6813 4.83753L15.1487 3.16247C15.0539 3.05896 14.9201 3 14.7798 3H9.22022C9.07991 3 8.94606 3.05896 8.85134 3.16247L7.31866 4.83753C7.22394 4.94104 7.09009 5 6.94978 5H4C3.46957 5 2.96086 5.21071 2.58579 5.58579C2.21071 5.96086 2 6.46957 2 7V18C2 18.5304 2.21071 19.0391 2.58579 19.4142C2.96086 19.7893 3.46957 20 4 20H20C20.5304 20 21.0391 19.7893 21.4142 19.4142C21.7893 19.0391 22 18.5304 22 18V7C22 6.46957 21.7893 5.96086 21.4142 5.58579C21.0391 5.21071 20.5304 5 20 5ZM20 17.5C20 17.7761 19.7761 18 19.5 18H4.5C4.22386 18 4 17.7761 4 17.5V7.5C4 7.22386 4.22386 7 4.5 7H7.82978C7.97009 7 8.10394 6.94104 8.19866 6.83753L9.73134 5.16247C9.82606 5.05896 9.95991 5 10.1002 5H13.8998C14.0401 5 14.1739 5.05896 14.2687 5.16247L15.8013 6.83753C15.8961 6.94104 16.0299 7 16.1702 7H19.5C19.7761 7 20 7.22386 20 7.5V17.5Z" fill="black"/>
<path d="M12 8C10.9391 8 9.92172 8.42143 9.17157 9.17157C8.42143 9.92172 8 10.9391 8 12C8 13.0609 8.42143 14.0783 9.17157 14.8284C9.92172 15.5786 10.9391 16 12 16C13.0609 16 14.0783 15.5786 14.8284 14.8284C15.5786 14.0783 16 13.0609 16 12C16 10.9391 15.5786 9.92172 14.8284 9.17157C14.0783 8.42143 13.0609 8 12 8ZM12 14.4C11.3635 14.4 10.753 14.1471 10.3029 13.6971C9.85286 13.247 9.6 12.6365 9.6 12C9.6 11.3635 9.85286 10.753 10.3029 10.3029C10.753 9.85286 11.3635 9.6 12 9.6C12.6365 9.6 13.247 9.85286 13.6971 10.3029C14.1471 10.753 14.4 11.3635 14.4 12C14.4 12.6365 14.1471 13.247 13.6971 13.6971C13.247 14.1471 12.6365 14.4 12 14.4Z" fill="black"/>
</svg>
