<svg width="24" height="24" viewBox="0 0 24 24" fill="none" xmlns="http://www.w3.org/2000/svg">
<path d="M14.8284 12.4816L16.2426 11.0674L12 6.82474L7.75732 11.0674L9.17154 12.4816L12 9.65317L14.8284 12.4816Z" fill="black"/>
<path d="M14.8284 16.7242L16.2426 15.31L12 11.0674L7.75732 15.31L9.17154 16.7242L12 13.8958L14.8284 16.7242Z" fill="black"/>
<path fill-rule="evenodd" clip-rule="evenodd" d="M23 4.77441C23 2.56528 21.2091 0.774414 19 0.774414H5C2.79086 0.774414 1 2.56528 1 4.77441V18.7744C1 20.9836 2.79086 22.7744 5 22.7744H19C21.2091 22.7744 23 20.9836 23 18.7744V4.77441ZM19 2.77441H5C3.89543 2.77441 3 3.66984 3 4.77441V18.7744C3 19.879 3.89543 20.7744 5 20.7744H19C20.1046 20.7744 21 19.879 21 18.7744V4.77441C21 3.66984 20.1046 2.77441 19 2.77441Z" fill="black"/>
</svg>
