<svg width="24" height="24" viewBox="0 0 24 24" fill="none" xmlns="http://www.w3.org/2000/svg">
<path fill-rule="evenodd" clip-rule="evenodd" d="M8.20397 2.00391C9.46456 2.00391 10.5072 3.10754 10.6791 4.54253L19.1626 13.0261L11.3845 20.8042C10.2129 21.9758 8.3134 21.9758 7.14183 20.8042L2.89919 16.5616C1.72761 15.39 1.72761 13.4905 2.89919 12.3189L5.70397 9.51416V4.96112C5.70397 3.32789 6.82326 2.00391 8.20397 2.00391ZM8.70397 4.96112V6.51416L7.70397 7.51416V4.96112C7.70397 4.63447 7.92783 4.36967 8.20397 4.36967C8.48012 4.36967 8.70397 4.63447 8.70397 4.96112ZM8.70397 10.8755V9.34259L4.3134 13.7332C3.92288 14.1237 3.92288 14.7568 4.3134 15.1474L8.55604 19.39C8.94657 19.7805 9.57973 19.7805 9.97026 19.39L16.3342 13.0261L10.704 7.39581V10.8755C10.704 10.9185 10.7032 10.9613 10.7017 11.0039H8.69216C8.6999 10.9626 8.70397 10.9196 8.70397 10.8755Z" fill="black"/>
<path d="M16.8591 16.875C15.6875 18.0466 15.6875 19.9461 16.8591 21.1177C18.0307 22.2892 19.9302 22.2892 21.1017 21.1177C22.2733 19.9461 22.2733 18.0466 21.1017 16.875L18.9804 14.7537L16.8591 16.875Z" fill="black"/>
</svg>
