<svg width="24" height="24" viewBox="0 0 24 24" fill="none" xmlns="http://www.w3.org/2000/svg">
<g clip-path="url(#clip0_284_18545)">
<path d="M14.8287 6.34338L16.2429 4.92916L12.0002 0.686523L7.75759 4.92916L9.1718 6.34338L12.0002 3.51495L14.8287 6.34338Z" fill="currentColor"/>
<path d="M4.92916 16.2429L6.34338 14.8287L3.51495 12.0002L6.34338 9.1718L4.92916 7.75759L0.686523 12.0002L4.92916 16.2429Z" fill="currentColor"/>
<path d="M7.75759 19.0713L12.0002 23.3139L16.2429 19.0713L14.8287 17.6571L12.0002 20.4855L9.1718 17.6571L7.75759 19.0713Z" fill="currentColor"/>
<path d="M17.6571 9.1718L20.4855 12.0002L17.6571 14.8287L19.0713 16.2429L23.3139 12.0002L19.0713 7.75759L17.6571 9.1718Z" fill="currentColor"/>
<path fill-rule="evenodd" clip-rule="evenodd" d="M12.0002 8.00024C14.2094 8.00024 16.0002 9.79111 16.0002 12.0002C16.0002 14.2094 14.2094 16.0002 12.0002 16.0002C9.79111 16.0002 8.00024 14.2094 8.00024 12.0002C8.00024 9.79111 9.79111 8.00024 12.0002 8.00024ZM12.0002 10.0002C13.1048 10.0002 14.0002 10.8957 14.0002 12.0002C14.0002 13.1048 13.1048 14.0002 12.0002 14.0002C10.8957 14.0002 10.0002 13.1048 10.0002 12.0002C10.0002 10.8957 10.8957 10.0002 12.0002 10.0002Z" fill="currentColor"/>
</g>
<defs>
<clipPath id="clip0_284_18545">
<rect width="24" height="24" fill="currentColor"/>
</clipPath>
</defs>
</svg>
