<svg width="24" height="24" viewBox="0 0 24 24" fill="none" xmlns="http://www.w3.org/2000/svg">
<path fill-rule="evenodd" clip-rule="evenodd" d="M12 8.88965C13.6569 8.88965 15 10.2328 15 11.8896C15 13.1959 14.1652 14.3071 13 14.7189V19.8896H11V14.7189C9.83481 14.3071 9 13.1959 9 11.8896C9 10.2328 10.3431 8.88965 12 8.88965ZM12 10.8896C12.5523 10.8896 13 11.3374 13 11.8896C13 12.4419 12.5523 12.8896 12 12.8896C11.4477 12.8896 11 12.4419 11 11.8896C11 11.3374 11.4477 10.8896 12 10.8896Z" fill="currentColor"/>
<path d="M7.05019 6.93986C5.78348 8.20661 5 9.95658 5 11.8896C5 14.0671 5.99426 16.0123 7.55355 17.2962L8.97712 15.8726C7.7757 14.9594 7 13.5151 7 11.8896C7 10.5089 7.55962 9.25889 8.46441 8.35408L7.05019 6.93986Z" fill="currentColor"/>
<path d="M15.5355 8.35397C16.4403 9.2588 17 10.5088 17 11.8896C17 13.5151 16.2243 14.9595 15.0228 15.8727L16.4463 17.2963C18.0057 16.0124 19 14.0671 19 11.8896C19 9.95653 18.2165 8.20651 16.9497 6.93976L15.5355 8.35397Z" fill="currentColor"/>
<path d="M1 11.8895C1 8.85201 2.23119 6.10204 4.22176 4.11143L5.63598 5.52565C4.00733 7.15432 3 9.4043 3 11.8895C3 14.3748 4.00733 16.6248 5.63597 18.2534L4.22175 19.6677C2.23119 17.677 1 14.9271 1 11.8895Z" fill="currentColor"/>
<path d="M19.7781 19.6678C21.7688 17.6771 23 14.9271 23 11.8895C23 8.85196 21.7688 6.10194 19.7781 4.11133L18.3639 5.52554C19.9926 7.15422 21 9.40424 21 11.8895C21 14.3748 19.9926 16.6249 18.3639 18.2535L19.7781 19.6678Z" fill="currentColor"/>
</svg>
