<svg width="24" height="24" viewBox="0 0 24 24" fill="none" xmlns="http://www.w3.org/2000/svg">
<path fill-rule="evenodd" clip-rule="evenodd" d="M3.49985 12.8993C2.7188 13.6804 2.7188 14.9467 3.49985 15.7278L7.35773 19.5857H4.08564C3.53335 19.5857 3.08564 20.0334 3.08564 20.5857C3.08564 21.1379 3.53335 21.5857 4.08564 21.5857H20.0856C20.6379 21.5857 21.0856 21.1379 21.0856 20.5857C21.0856 20.0334 20.6379 19.5857 20.0856 19.5857H10.9557L20.4704 10.0709C21.2515 9.28987 21.2515 8.02354 20.4704 7.24249L16.2278 2.99985C15.4467 2.2188 14.1804 2.2188 13.3993 2.99985L3.49985 12.8993ZM7.82566 11.402L4.91406 14.3136L9.1567 18.5562L12.0683 15.6446L7.82566 11.402ZM9.23988 9.98774L13.4825 14.2304L19.0562 8.6567L14.8136 4.41406L9.23988 9.98774Z" fill="currentColor"/>
</svg>
