<svg width="24" height="24" viewBox="0 0 24 24" fill="none" xmlns="http://www.w3.org/2000/svg">
<path fill-rule="evenodd" clip-rule="evenodd" d="M3 5C3 3.34315 4.34315 2 6 2H14C17.866 2 21 5.13401 21 9V19C21 20.6569 19.6569 22 18 22H6C4.34315 22 3 20.6569 3 19V5ZM13 4H6C5.44772 4 5 4.44772 5 5V19C5 19.5523 5.44772 20 6 20H18C18.5523 20 19 19.5523 19 19V9H13V4ZM18.584 7C17.9413 5.52906 16.6113 4.4271 15 4.10002V7H18.584Z" fill="black"/>
<path d="M10.9197 12.3104C10.6797 11.5404 10.1497 9.08042 11.5497 9.04042C12.9497 9.00042 12.0297 12.1604 12.0297 12.1604C12.4197 13.6504 14.0497 14.7204 14.0497 14.7204C14.5497 14.5704 17.3997 14.2404 16.9997 15.7204C16.5697 17.2004 13.4997 15.8104 13.4997 15.8104C11.5497 15.9504 10.0897 16.4704 10.0897 16.4704C8.95966 18.5804 7.63966 19.5004 7.09966 18.6104C6.42966 17.5004 9.22966 16.0704 9.22966 16.0704C10.6797 13.7204 10.8997 12.3504 10.9197 12.3104ZM11.5697 13.1504C11.1697 14.4504 10.3697 15.8404 10.3697 15.8404C11.2197 15.5004 13.0797 15.1104 13.0797 15.1104C11.9397 14.1104 11.5897 13.1604 11.5697 13.1504ZM14.7097 15.3204C14.7097 15.3204 16.4597 15.9704 16.4997 15.7104C16.5697 15.4404 15.1697 15.2004 14.7097 15.3204ZM9.04966 16.8104C8.27966 17.1104 7.53966 18.3904 7.71966 18.3904C7.89966 18.4004 8.62966 17.7904 9.04966 16.8104ZM11.5697 11.2604C11.5697 11.2104 11.9997 9.58042 11.5697 9.53042C11.2697 9.50042 11.5597 11.2204 11.5697 11.2604Z" fill="black"/>
</svg>
