<svg width="24" height="24" viewBox="0 0 24 24" fill="none" xmlns="http://www.w3.org/2000/svg">
<path fill-rule="evenodd" clip-rule="evenodd" d="M20.4648 2.09166C20.0743 1.70114 19.4411 1.70114 19.0506 2.09166C18.9516 2.19067 18.8015 2.21479 18.6708 2.16451C17.5979 1.75181 16.3358 1.97806 15.4706 2.84327L4.59661 13.7173C4.44041 13.8735 4.44041 14.1268 4.59662 14.283L9.68778 19.3741C9.84399 19.5303 10.0973 19.5303 10.2535 19.3741L21.1274 8.50012C21.9926 7.63492 22.2189 6.37272 21.8062 5.29989C21.7559 5.16919 21.78 5.0191 21.879 4.92009C22.2696 4.52956 22.2696 3.8964 21.879 3.50587L20.4648 2.09166ZM19.954 6.27937C20.1103 6.43558 20.1103 6.68884 19.954 6.84505L10.2535 16.5457C10.0973 16.7019 9.84399 16.7019 9.68778 16.5457L7.42504 14.283C7.26883 14.1268 7.26883 13.8735 7.42504 13.7173L17.1256 4.01663C17.2818 3.86042 17.5351 3.86042 17.6913 4.01663L19.954 6.27937Z" fill="currentColor"/>
<path d="M1.67536 22.7662C1.37676 22.8476 1.10276 22.5736 1.18421 22.275L2.94032 15.8368C3.02114 15.5405 3.39192 15.4421 3.60908 15.6593L8.29086 20.3417C8.50801 20.5588 8.40954 20.9296 8.11324 21.0104L1.67536 22.7662Z" fill="currentColor"/>
</svg>
