<svg width="24" height="24" viewBox="0 0 24 24" fill="none" xmlns="http://www.w3.org/2000/svg">
<path d="M15.8789 4.87891H3.87891V6.87891H15.8789V4.87891Z" fill="black"/>
<path d="M15.8789 8.87891H3.87891V10.8789H15.8789V8.87891Z" fill="black"/>
<path d="M3.87891 12.8789H11.8789V14.8789H3.87891V12.8789Z" fill="black"/>
<path fill-rule="evenodd" clip-rule="evenodd" d="M13.7576 12.7576C12.586 13.9292 12.586 15.8287 13.7576 17.0002C14.6812 17.9239 16.0572 18.1193 17.1724 17.5866L18.7073 19.1215L20.1215 17.7073L18.5866 16.1724C19.1193 15.0573 18.9238 13.6812 18.0002 12.7576C16.8286 11.586 14.9291 11.586 13.7576 12.7576ZM15.1718 15.586C15.5623 15.9765 16.1955 15.9765 16.586 15.586C16.9765 15.1955 16.9765 14.5623 16.586 14.1718C16.1955 13.7813 15.5623 13.7813 15.1718 14.1718C14.7812 14.5623 14.7812 15.1955 15.1718 15.586Z" fill="black"/>
</svg>
