<svg width="24" height="24" viewBox="0 0 24 24" fill="none" xmlns="http://www.w3.org/2000/svg">
<path d="M10.854 12.9501L11.0283 14.9425L8.65372 15.1502C9.55283 16.0168 10.7757 16.5497 12.123 16.5497C14.8845 16.5497 17.123 14.3111 17.123 11.5497C17.123 8.78828 14.8845 6.5497 12.123 6.5497C10.3023 6.5497 8.70882 7.52293 7.8345 8.97756L5.83179 8.47689C6.96982 6.15126 9.3594 4.5497 12.123 4.5497C15.989 4.5497 19.123 7.68371 19.123 11.5497C19.123 15.4157 15.989 18.5497 12.123 18.5497C10.1766 18.5497 8.41571 17.7553 7.14693 16.4729L7.39216 19.2759L5.39977 19.4502L4.87683 13.473L10.854 12.9501Z" fill="currentColor"/>
</svg>
