<svg width="24" height="24" viewBox="0 0 24 24" fill="none" xmlns="http://www.w3.org/2000/svg">
<path d="M7.18224 9.17203L5.76803 7.75781L1.52539 12.0005L5.76803 16.2431L7.18224 14.8289L4.35382 12.0005L7.18224 9.17203Z" fill="black"/>
<path d="M16.8184 14.8289L18.2326 16.2431L22.4753 12.0005L18.2326 7.75782L16.8184 9.17204L19.6468 12.0005L16.8184 14.8289Z" fill="black"/>
<path fill-rule="evenodd" clip-rule="evenodd" d="M15.0002 12.0005C15.0002 13.6573 13.6571 15.0005 12.0002 15.0005C10.3434 15.0005 9.00024 13.6573 9.00024 12.0005C9.00024 10.3436 10.3434 9.00049 12.0002 9.00049C13.6571 9.00049 15.0002 10.3436 15.0002 12.0005ZM13.0002 12.0005C13.0002 12.5528 12.5525 13.0005 12.0002 13.0005C11.448 13.0005 11.0002 12.5528 11.0002 12.0005C11.0002 11.4482 11.448 11.0005 12.0002 11.0005C12.5525 11.0005 13.0002 11.4482 13.0002 12.0005Z" fill="black"/>
</svg>
