<svg width="24" height="24" viewBox="0 0 24 24" fill="none" xmlns="http://www.w3.org/2000/svg">
<path d="M9.17203 16.8184L7.75781 18.2326L12.0005 22.4753L16.2431 18.2326L14.8289 16.8184L12.0005 19.6468L9.17203 16.8184Z" fill="currentColor"/>
<path d="M14.8289 7.18225L16.2431 5.76803L12.0005 1.52539L7.75782 5.76803L9.17204 7.18225L12.0005 4.35382L14.8289 7.18225Z" fill="currentColor"/>
<path fill-rule="evenodd" clip-rule="evenodd" d="M12.0005 9.00042C13.6573 9.00042 15.0005 10.3436 15.0005 12.0004C15.0005 13.6573 13.6573 15.0004 12.0005 15.0004C10.3436 15.0004 9.00049 13.6573 9.00049 12.0004C9.00049 10.3436 10.3436 9.00042 12.0005 9.00042ZM12.0005 11.0004C12.5528 11.0004 13.0005 11.4481 13.0005 12.0004C13.0005 12.5527 12.5528 13.0004 12.0005 13.0004C11.4482 13.0004 11.0005 12.5527 11.0005 12.0004C11.0005 11.4481 11.4482 11.0004 12.0005 11.0004Z" fill="currentColor"/>
</svg>
