<svg width="24" height="24" viewBox="0 0 24 24" fill="none" xmlns="http://www.w3.org/2000/svg">
<path d="M18.6209 2.5498L21.4493 5.37823L20.0351 6.79245L17.2067 3.96402L18.6209 2.5498Z" fill="black"/>
<path d="M12.822 8.60006H10.822V12.6001H12.822V8.60006Z" fill="black"/>
<path fill-rule="evenodd" clip-rule="evenodd" d="M5.18584 18.8133C8.70056 22.328 14.399 22.328 17.9138 18.8133C21.4285 15.2985 21.4285 9.60006 17.9138 6.08534C14.399 2.57062 8.70056 2.57062 5.18584 6.08534C1.67113 9.60006 1.67112 15.2985 5.18584 18.8133ZM6.60006 17.399C9.33373 20.1327 13.7659 20.1327 16.4996 17.399C19.2332 14.6654 19.2332 10.2332 16.4996 7.49955C13.7659 4.76588 9.33373 4.76588 6.60006 7.49955C3.86639 10.2332 3.86639 14.6654 6.60006 17.399Z" fill="black"/>
</svg>
