<svg width="24" height="24" viewBox="0 0 24 24" fill="none" xmlns="http://www.w3.org/2000/svg">
<path d="M5.33887 4.46777H7.33887V7.02487C8.52888 6.08978 10.0295 5.53207 11.6603 5.53207C15.5263 5.53207 18.6603 8.66608 18.6603 12.5321C18.6603 16.3981 15.5263 19.5321 11.6603 19.5321C9.50982 19.5321 7.58583 18.5623 6.30176 17.0363L7.92108 15.8515C8.83698 16.8825 10.1728 17.5321 11.6603 17.5321C14.4217 17.5321 16.6603 15.2935 16.6603 12.5321C16.6603 9.77065 14.4217 7.53207 11.6603 7.53207C10.5735 7.53207 9.56762 7.87884 8.74736 8.46777L11.3389 8.46777V10.4678H5.33887V4.46777Z" fill="currentColor"/>
</svg>
